<?xml version="1.0" encoding="utf-8"?>
<!-- Generator: Adobe Illustrator 27.3.1, SVG Export Plug-In . SVG Version: 6.00 Build 0)  -->
<svg version="1.1" id="Layer_1" xmlns="http://www.w3.org/2000/svg" xmlns:xlink="http://www.w3.org/1999/xlink" x="0px" y="0px"
	 viewBox="0 0 800 800" style="enable-background:new 0 0 800 800;" xml:space="preserve">
<style type="text/css">
	.st0{fill:#FFEFE1;}
	.st1{opacity:0.9;fill-rule:evenodd;clip-rule:evenodd;fill:#1A1A1A;}
	.st2{fill:#FFFFFF;}
	.st3{fill:#006793;}
	.st4{fill-rule:evenodd;clip-rule:evenodd;fill:#FFFFFF;}
	.st5{fill-rule:evenodd;clip-rule:evenodd;fill:#006793;}
	.st6{fill-rule:evenodd;clip-rule:evenodd;}
</style>
<rect x="0" class="st0" width="800" height="800"/>
<g>
	<g>
		<path class="st3" d="M291.07,438.53c2.04,0,3.96,0.24,5.77,0.73c1.81,0.49,3.4,1.11,4.78,1.86c1.37,0.75,2.48,1.62,3.31,2.59
			c0.84,0.98,1.35,1.99,1.53,3.05c0.23,1.33,0.02,2.35-0.66,3.05c-0.67,0.71-1.59,1.06-2.73,1.06c-1.24,0-2.26-0.37-3.05-1.13
			c-0.8-0.75-1.61-1.59-2.44-2.52c-0.83-0.93-1.79-1.77-2.9-2.52c-1.11-0.75-2.5-1.13-4.18-1.13c-2.66,0-4.93,0.93-6.81,2.79
			c-1.89,1.86-3.56,4.54-5.02,8.03c-1.46,3.5-2.73,7.75-3.8,12.75c-1.07,5-2.07,10.6-3.01,16.8l-7.81,50.59
			c-0.32,2.21,0.17,3.74,1.47,4.58c1.3,0.84,3.54,1.26,6.73,1.26l0.61,3.45h-37.71l-0.61-3.45c2.83,0,4.92-0.46,6.26-1.39
			c1.34-0.93,2.17-2.24,2.5-3.92l5.68-34.79c-0.8,0.98-1.63,1.82-2.48,2.52c-0.76,0.71-1.67,1.31-2.74,1.79
			c-1.07,0.49-2.22,0.73-3.46,0.73c-1.06,0-2.13-0.27-3.2-0.8c-1.07-0.53-2.15-1.13-3.24-1.79c-1.09-0.66-2.18-1.28-3.25-1.86
			c-1.08-0.57-2.19-0.86-3.34-0.86c-0.71,0-1.29,0.11-1.73,0.33c-0.45,0.22-0.87,0.46-1.27,0.73c-0.38,0.35-0.76,0.71-1.14,1.06
			l-4.28,24.7c-1.81,10.36-4.38,19.23-7.72,26.63c-3.34,7.39-7.33,13.43-11.94,18.13c-4.62,4.69-9.83,8.12-15.65,10.29
			c-5.82,2.17-12.09,3.25-18.81,3.25c-3.19,0-6.21-0.46-9.08-1.39c-2.87-0.93-5.39-2.21-7.58-3.85c-2.19-1.64-4.05-3.63-5.57-5.98
			c-1.52-2.35-2.54-4.98-3.05-7.9c-0.86-4.87-0.41-9.49,1.34-13.88c1.75-4.38,4.37-8.21,7.87-11.49c3.49-3.27,7.55-5.89,12.16-7.84
			c4.61-1.95,9.4-2.92,14.36-2.92c1.06,0,1.68,0.49,1.85,1.46c0.19,1.06-0.21,1.59-1.18,1.59c-3.72,0-7.42,0.84-11.11,2.52
			c-3.69,1.68-6.92,3.94-9.7,6.77c-2.78,2.83-4.89,6.06-6.33,9.69c-1.44,3.63-1.82,7.35-1.15,11.15c0.42,2.39,1.2,4.45,2.35,6.17
			c1.15,1.73,2.5,3.14,4.07,4.25c1.57,1.11,3.26,1.93,5.08,2.46c1.82,0.53,3.61,0.8,5.39,0.8c4.96,0,9.28-1.09,12.97-3.25
			c3.69-2.17,6.9-5.42,9.63-9.76c2.73-4.34,5.06-9.72,6.98-16.13c1.92-6.42,3.55-13.88,4.88-22.38l11.32-69.85
			c0.54-3.45-2.42-5.18-8.88-5.18l-0.59-3.32h38.11l0.59,3.32c-2.66,0-4.73,0.4-6.23,1.2c-1.5,0.8-2.43,2.17-2.79,4.12l-6.82,42.63
			c0.96-1.06,2.03-2.04,3.2-2.92c0.94-0.71,2.04-1.37,3.3-1.99c1.26-0.62,2.51-0.93,3.75-0.93c1.06,0,2.13,0.27,3.19,0.8
			c1.07,0.53,2.19,1.13,3.37,1.79c1.18,0.66,2.35,1.26,3.5,1.79c1.16,0.53,2.31,0.8,3.46,0.8c0.53,0,1.03-0.18,1.5-0.53
			c0.24-0.18,0.42-0.35,0.57-0.53l2.4-15.01c2.32-14.96,6.8-25.85,13.43-32.67C271.95,441.94,280.53,438.53,291.07,438.53z"/>
		<path class="st3" d="M314.3,486.73c3.19,0,6.04,0.46,8.55,1.39c2.51,0.93,4.66,2.21,6.46,3.85c1.79,1.64,3.24,3.56,4.34,5.78
			c1.1,2.21,1.88,4.65,2.35,7.3c0.92,5.22,0.8,10.29-0.37,15.21c-1.17,4.91-3.19,9.25-6.07,13.01c-2.88,3.76-6.5,6.8-10.88,9.1
			c-4.38,2.3-9.26,3.45-14.66,3.45c-5.58,0-10.37-1.44-14.37-4.32c-4.01-2.88-6.51-7.15-7.5-12.82c-0.98-5.58-0.86-10.89,0.38-15.93
			c1.24-5.05,3.33-9.5,6.28-13.35c2.95-3.85,6.61-6.93,10.99-9.23C304.15,487.89,308.99,486.73,314.3,486.73z M305.48,539.85
			c1.33,0,2.62-0.68,3.89-2.06c1.26-1.37,2.44-3.21,3.54-5.51c1.1-2.3,2.06-4.89,2.88-7.77c0.82-2.88,1.47-5.82,1.96-8.83
			c0.49-3.01,0.79-5.95,0.9-8.83c0.11-2.88-0.03-5.42-0.42-7.64c-0.78-4.43-2.59-6.64-5.42-6.64c-1.33,0-2.62,0.69-3.89,2.06
			c-1.26,1.37-2.44,3.21-3.54,5.51c-1.1,2.3-2.06,4.89-2.88,7.77c-0.82,2.88-1.48,5.8-1.97,8.76c-0.5,2.97-0.8,5.89-0.91,8.76
			c-0.11,2.88,0.02,5.38,0.39,7.5c0.45,2.57,1.17,4.36,2.14,5.38C303.13,539.34,304.24,539.85,305.48,539.85z"/>
		<path class="st3" d="M374.39,534.54c0.27,0,0.54,0.2,0.84,0.6c0.29,0.4,0.48,0.82,0.56,1.26c0.08,0.44-0.23,1.2-0.93,2.26
			c-0.7,1.06-1.75,2.12-3.16,3.19c-1.41,1.06-3.17,1.99-5.28,2.79c-2.12,0.8-4.55,1.2-7.29,1.2c-3.72,0-6.54-0.82-8.47-2.46
			c-1.93-1.64-3.16-4-3.71-7.1c-0.5-2.83-0.69-6.42-0.57-10.76c0.12-4.34,0.52-9.1,1.2-14.28c0.68-5.18,1.6-10.6,2.77-16.27
			c1.17-5.66,2.6-11.24,4.29-16.73c1.69-5.49,3.58-10.71,5.67-15.67c2.09-4.96,4.38-9.32,6.86-13.08c2.48-3.76,5.14-6.75,7.98-8.96
			c2.84-2.21,5.81-3.32,8.91-3.32c2.74,0,4.9,0.8,6.46,2.39c1.56,1.59,2.57,3.67,3.03,6.24c0.72,4.07,0.35,8.92-1.09,14.54
			c-1.44,5.62-3.52,11.55-6.22,17.79c-2.71,6.24-5.83,12.51-9.37,18.79c-3.54,6.29-7.05,12.08-10.54,17.4
			c-0.42,2.66-0.76,5.22-1.03,7.7c-0.25,2.12-0.41,4.34-0.49,6.64c-0.08,2.3,0.03,4.3,0.32,5.98c0.47,2.66,1.23,3.98,2.3,3.98
			c0.8,0,1.53-0.22,2.21-0.66c0.67-0.44,1.32-0.91,1.95-1.39c0.62-0.49,1.18-0.95,1.68-1.39
			C373.74,534.76,374.13,534.54,374.39,534.54z M367.57,504.13c2.52-4.25,5.06-9.07,7.61-14.47c2.55-5.4,4.76-10.76,6.66-16.07
			c1.89-5.31,3.37-10.27,4.42-14.87c1.05-4.6,1.33-8.28,0.84-11.02c-0.31-1.77-0.91-2.66-1.8-2.66c-1.15,0-2.51,1.84-4.07,5.51
			c-1.57,3.68-3.17,8.39-4.81,14.14c-1.64,5.76-3.24,12.11-4.81,19.06C370.05,490.7,368.7,497.49,367.57,504.13z"/>
		<path class="st3" d="M393.63,496.83c-0.25-1.42-0.91-2.12-1.97-2.12c-0.89,0-1.73,0.33-2.55,1c-0.81,0.66-1.48,1-2.01,1
			c-0.8,0-1.27-0.44-1.43-1.33c-0.11-0.62,0.24-1.42,1.04-2.39c0.8-0.97,1.99-1.88,3.57-2.72c1.58-0.84,3.49-1.57,5.72-2.19
			c2.23-0.62,4.73-0.93,7.47-0.93c2.57,0,4.78,0.51,6.64,1.53c1.86,1.02,2.93,2.28,3.19,3.78c0.28,1.59-0.08,4.18-1.09,7.77
			c-1.01,3.59-2.11,7.59-3.33,12.02c-1.21,4.43-2.23,8.96-3.04,13.61c-0.82,4.65-0.9,8.83-0.24,12.55c0.62,0,1.21-0.18,1.76-0.53
			c0.56-0.35,1.11-0.73,1.66-1.13c0.55-0.4,1.04-0.77,1.46-1.13c0.42-0.35,0.77-0.53,1.03-0.53c0.44,0,0.79,0.24,1.06,0.73
			c0.26,0.49,0.43,0.95,0.51,1.39c0.11,0.62-0.17,1.42-0.84,2.39c-0.67,0.98-1.7,1.93-3.08,2.85c-1.39,0.93-3.08,1.73-5.09,2.39
			c-2.01,0.66-4.25,1-6.73,1c-6.02,0-9.41-2.17-10.18-6.51c-0.33-1.86-0.37-4.09-0.12-6.71c0.25-2.61,0.63-5.36,1.14-8.23
			c0.51-2.88,1.11-5.78,1.79-8.7c0.68-2.92,1.31-5.64,1.88-8.17c0.57-2.52,1.05-4.73,1.42-6.64
			C393.66,498.97,393.77,497.62,393.63,496.83z M419.26,462.17c0.41,2.3-0.08,4.34-1.45,6.11c-1.37,1.77-3.65,2.66-6.84,2.66
			c-3.19,0-5.75-0.84-7.68-2.52c-1.94-1.68-3.1-3.63-3.49-5.84c-0.41-2.3,0.05-4.36,1.37-6.17c1.32-1.81,3.66-2.72,7.02-2.72
			c3.1,0,5.61,0.84,7.55,2.52C417.68,457.87,418.86,459.87,419.26,462.17z"/>
		<path class="st3" d="M477.31,537.59c0.53,0,1.04-0.13,1.52-0.4c0.48-0.27,0.96-0.57,1.43-0.93c0.47-0.35,0.9-0.68,1.28-1
			c0.39-0.31,0.71-0.46,0.98-0.46c0.27,0,0.54,0.2,0.84,0.6c0.29,0.4,0.48,0.86,0.58,1.39c0.09,0.53-0.26,1.28-1.06,2.26
			c-0.8,0.98-1.96,1.93-3.48,2.86c-1.52,0.93-3.3,1.75-5.34,2.46c-2.05,0.71-4.31,1.06-6.78,1.06c-2.57,0-4.66-0.69-6.27-2.06
			c-1.62-1.37-2.68-3.52-3.19-6.44c-0.27-1.51-0.39-2.99-0.39-4.45c0.01-1.46,0.12-2.81,0.35-4.05c0.19-1.41,0.47-2.83,0.85-4.25
			l-0.71-0.27c-1.21,4.16-2.87,7.83-4.96,11.02c-1.82,2.75-4.14,5.25-6.98,7.5c-2.83,2.26-6.38,3.39-10.62,3.39
			c-3.19,0-5.96-0.91-8.32-2.72c-2.36-1.81-3.83-4.4-4.42-7.77c-0.91-5.13-0.68-10.53,0.66-16.2c1.35-5.66,3.59-10.89,6.73-15.67
			c3.14-4.78,7.11-8.72,11.93-11.82c4.81-3.1,10.22-4.65,16.24-4.65c0.62,0,1.27,0.02,1.94,0.07c0.67,0.05,1.32,0.07,1.94,0.07h1.99
			c1.18-6.37,2.19-12.17,3.04-17.4c0.41-2.21,0.77-4.43,1.09-6.64c0.32-2.21,0.62-4.25,0.91-6.11c0.29-1.86,0.5-3.45,0.62-4.78
			c0.12-1.33,0.13-2.26,0.04-2.79c-0.27-1.5-1.28-2.26-3.05-2.26c-0.62,0-1.28,0.02-1.98,0.07c-0.7,0.05-1.4,0.11-2.09,0.2
			c-0.78,0.09-1.61,0.18-2.48,0.27l-0.68-3.85c2.12-0.53,4.34-1.02,6.65-1.46c1.97-0.35,4.2-0.68,6.66-1
			c2.47-0.31,4.99-0.46,7.55-0.46c5.58,0,8.69,1.82,9.33,5.44c0.14,0.8,0.01,2.55-0.4,5.25c-0.41,2.7-0.96,6-1.64,9.89
			c-0.69,3.9-1.52,8.21-2.5,12.95c-0.98,4.74-1.98,9.61-3,14.61c-1.02,5-2.01,9.96-2.95,14.87c-0.95,4.91-1.74,9.47-2.37,13.68
			c-0.63,4.21-1.12,7.86-1.45,10.96c-0.34,3.1-0.38,5.36-0.13,6.77C475.45,536.84,476.16,537.59,477.31,537.59z M443.55,536.67
			c1.33,0,2.72-0.91,4.17-2.72c1.45-1.81,2.88-4.12,4.29-6.91c1.41-2.79,2.75-5.86,4.02-9.23c1.27-3.36,2.36-6.59,3.27-9.69
			c0.92-3.1,1.6-5.89,2.04-8.37c0.45-2.48,0.59-4.2,0.41-5.18c-0.28-1.59-1.44-2.39-3.47-2.39c-1.77,0-3.5,0.73-5.19,2.19
			c-1.69,1.46-3.25,3.39-4.69,5.78c-1.44,2.39-2.72,5.07-3.83,8.03c-1.12,2.97-2.02,6-2.71,9.1c-0.69,3.1-1.14,6.06-1.35,8.9
			c-0.21,2.83-0.13,5.31,0.25,7.44C441.11,535.65,442.04,536.67,443.55,536.67z"/>
		<path class="st3" d="M546.23,537.59c0.53,0,1.03-0.18,1.5-0.53c0.47-0.35,0.89-0.73,1.26-1.13c0.37-0.4,0.73-0.77,1.06-1.13
			c0.34-0.35,0.64-0.53,0.9-0.53c0.88,0,1.43,0.58,1.63,1.73c0.11,0.62-0.18,1.48-0.87,2.59c-0.69,1.11-1.69,2.19-3.01,3.25
			c-1.32,1.06-2.97,1.99-4.95,2.79c-1.98,0.8-4.22,1.2-6.7,1.2c-2.83,0-5.15-0.73-6.96-2.19c-1.81-1.46-2.97-3.69-3.51-6.71
			c-0.27-1.51-0.39-2.99-0.39-4.45c0.01-1.46,0.12-2.81,0.35-4.05c0.19-1.41,0.48-2.79,0.87-4.12l-0.58-0.27
			c-1.23,4.07-2.89,7.7-4.99,10.89c-1.82,2.75-4.17,5.25-7.04,7.5c-2.88,2.26-6.44,3.39-10.69,3.39c-3.1,0-5.85-0.91-8.25-2.72
			c-2.4-1.81-3.9-4.4-4.49-7.77c-0.95-5.4-0.72-10.95,0.71-16.67c1.43-5.71,3.83-10.93,7.2-15.67c3.37-4.73,7.62-8.63,12.75-11.69
			c5.13-3.05,10.97-4.58,17.52-4.58c5.84,0,10.57,0.82,14.18,2.46c3.61,1.64,5.57,3.34,5.88,5.11c0.23,1.33-0.04,3.52-0.83,6.57
			c-0.79,3.05-1.66,6.53-2.61,10.42c-0.95,3.9-1.72,7.97-2.29,12.22c-0.58,4.25-0.55,8.19,0.09,11.82
			C544.24,536.84,544.99,537.59,546.23,537.59z M512.34,536.67c1.33,0,2.72-0.88,4.18-2.66c1.46-1.77,2.87-4.05,4.24-6.84
			c1.37-2.79,2.67-5.84,3.89-9.16c1.23-3.32,2.3-6.53,3.22-9.63c0.91-3.1,1.59-5.89,2.04-8.37c0.45-2.48,0.59-4.2,0.42-5.18
			c-0.28-1.59-1.4-2.39-3.34-2.39c-1.86,0-3.61,0.73-5.26,2.19c-1.65,1.46-3.19,3.37-4.64,5.71c-1.44,2.35-2.7,5.02-3.76,8.03
			c-1.06,3.01-1.95,6.04-2.65,9.1c-0.7,3.05-1.13,6.02-1.29,8.9c-0.16,2.88-0.06,5.33,0.3,7.37
			C510.04,535.69,510.92,536.67,512.34,536.67z"/>
		<path class="st3" d="M629.81,549.94c0.12,0.71-0.34,1.84-1.4,3.39c-1.05,1.55-2.66,3.12-4.81,4.71c-2.16,1.59-4.87,3.01-8.15,4.25
			c-3.28,1.24-7.09,1.86-11.42,1.86c-3.28,0-6.33-0.35-9.15-1.06c-2.83-0.71-5.47-1.66-7.94-2.85c-2.47-1.2-4.72-2.52-6.74-3.98
			c-2.03-1.46-3.85-2.99-5.46-4.58c-3.83-3.63-7.09-7.83-9.79-12.62c-1.35,0.89-2.62,1.68-3.83,2.39c-1.04,0.62-2.14,1.17-3.29,1.66
			c-1.15,0.49-2.08,0.73-2.79,0.73c-1.41,0-2.3-1.02-2.66-3.05c-0.25-1.41-0.03-2.94,0.65-4.58c0.69-1.64,1.73-3.14,3.12-4.51
			c1.4-1.37,3.1-2.5,5.11-3.39c2.01-0.88,4.22-1.33,6.61-1.33c0.8,0,1.65,0.09,2.57,0.27c0.37,0.09,0.74,0.18,1.11,0.27
			c2.88-2.21,5.7-4.6,8.43-7.17c2.37-2.12,4.79-4.58,7.27-7.37c2.47-2.79,4.56-5.64,6.26-8.56c-2.23,0.44-4.46,0.84-6.7,1.2
			c-1.97,0.35-4.09,0.64-6.35,0.86c-2.26,0.22-4.41,0.33-6.45,0.33c-3.72,0-6.72-0.71-9.01-2.12c-2.29-1.42-3.69-3.59-4.2-6.51
			c-0.39-2.21-0.34-4.4,0.17-6.57c0.5-2.17,1.24-4.14,2.21-5.91c0.97-1.77,2.07-3.21,3.29-4.32c1.22-1.11,2.36-1.66,3.43-1.66
			c0.88,0,1.39,0.36,1.52,1.06c0.08,0.44-0.09,0.98-0.52,1.59c-0.42,0.62-0.55,1.42-0.38,2.39c0.36,2.04,3.19,3.9,8.49,5.58
			c5.3,1.68,13.13,2.52,23.48,2.52c0.63-1.95,1.58-3.7,2.86-5.25c1.28-1.55,2.8-2.32,4.57-2.32c1.06,0,1.91,0.31,2.55,0.93
			c0.64,0.62,1.05,1.42,1.22,2.39c0.3,1.68,0.22,3.23-0.24,4.65c-0.46,1.42-1.14,2.68-2.05,3.78c-0.91,1.11-1.98,2.08-3.2,2.92
			c-1.22,0.84-2.41,1.53-3.55,2.06c-3,4.07-6.14,7.88-9.41,11.42c-3.27,3.54-6.36,6.6-9.27,9.16c-3.35,3.1-6.7,5.93-10.06,8.5
			c3.66,4.16,7.59,7.88,11.79,11.15c3.6,2.83,7.74,5.38,12.43,7.64c4.69,2.26,9.65,3.39,14.87,3.39c2.12,0,3.98-0.24,5.58-0.73
			c1.59-0.49,2.94-1,4.05-1.53c1.1-0.53,1.96-1.04,2.59-1.53c0.62-0.49,1.11-0.73,1.46-0.73
			C629.29,548.75,629.67,549.15,629.81,549.94z"/>
		<path class="st3" d="M656.05,528.57c0.44,0,0.88,0.2,1.3,0.6c0.42,0.4,0.68,0.86,0.78,1.39c0.14,0.8-0.35,2.04-1.47,3.72
			c-1.12,1.68-2.75,3.39-4.87,5.11c-2.13,1.73-4.68,3.23-7.64,4.51c-2.96,1.28-6.21,1.93-9.75,1.93c-6.37,0-11.52-1.57-15.44-4.71
			c-3.92-3.14-6.39-7.64-7.42-13.48c-0.92-5.22-0.73-10.29,0.57-15.21c1.3-4.91,3.52-9.27,6.66-13.08
			c3.13-3.81,7.02-6.86,11.66-9.16c4.64-2.3,9.84-3.45,15.59-3.45c4.25,0,7.64,0.93,10.19,2.79c2.54,1.86,4.07,4.25,4.58,7.17
			c0.47,2.66,0.04,5.22-1.3,7.7c-1.33,2.48-3.4,4.69-6.2,6.64c-2.8,1.95-6.19,3.54-10.18,4.78c-3.99,1.24-8.35,1.95-13.1,2.12
			c-0.15,1.15-0.24,2.39-0.27,3.72c-0.06,1.15-0.05,2.46,0.03,3.92c0.08,1.46,0.26,2.99,0.54,4.58c1.02,5.76,3.69,8.63,8.03,8.63
			c2.21,0,4.27-0.53,6.16-1.59c1.89-1.06,3.59-2.23,5.09-3.52c1.5-1.28,2.8-2.46,3.89-3.52
			C654.58,529.1,655.43,528.57,656.05,528.57z M630.59,513.69c3.05-0.27,5.68-1.06,7.88-2.39c2.2-1.33,3.96-2.88,5.29-4.65
			c1.32-1.77,2.26-3.63,2.8-5.58c0.54-1.95,0.7-3.59,0.46-4.91c-0.44-2.48-1.5-3.72-3.18-3.72c-1.24,0-2.52,0.53-3.84,1.59
			c-1.32,1.06-2.58,2.55-3.8,4.45c-1.21,1.9-2.32,4.16-3.32,6.77C631.89,507.87,631.12,510.68,630.59,513.69z"/>
	</g>
	<g>
		<path class="st5" d="M434.94,368.96c0.69,14.06,0.43,30.36-1.92,47.51c47.83,2.84,91.95-4.07,133.21-30.2
			c0.84-5.67,1.35-11.45,1.53-17.31H434.94z"/>
		<path class="st5" d="M419.71,415.45c3.31,0.31,6.6,0.58,9.88,0.81c2.84-23.32,3.02-51.56-3.02-83.61
			C426.56,332.64,431.42,372.9,419.71,415.45z"/>
		<path class="st5" d="M405.44,317.74c0.84-3.23,1.62-6.21,1.69-6.41c0.09-0.26-2.31,3.22-4.41,6.3
			C403.65,317.63,404.55,317.67,405.44,317.74z"/>
		<path class="st5" d="M506.17,243.39h-78.81c0,0,18.12-3.19,24.12-7.69c5.99-4.5,21.72-1.3,21.72-1.3
			c10.66-6.51,24.52,3.77,24.52,3.77l0.3-0.32c-23.07-14.57-50.41-23-79.72-23c-56.27,0-105.27,31.08-130.79,77.02
			c2.64-0.07,5-0.45,6.96-1.38c14.59-6.92,25.06,14.03,25.06,14.03s5.05-8.23,21.88,2.81c16.84,11.03,45.45,11.97,45.45,11.97H275.7
			c-4.49,14.22-6.92,29.36-6.92,45.07c0,7.5,0.56,14.86,1.62,22.06c50.55,11.58,97.43,23.23,141.24,28.17
			c8.33-20.37,13.68-48.3,10.3-85.96c-0.83,3.69-1.61,7.86-2.23,12.44l-7.66-4.05l7.13,8.47c-0.27,2.59-0.48,5.29-0.61,8.08
			c-0.08,1.66-0.21,3.26-0.37,4.8l-6.75-2.77l6.41,5.45c-0.33,2.29-0.76,4.43-1.25,6.42c-3.41-1.53-7.28-3.25-7.05-3.06
			c0.2,0.17,3.23,3.02,6.28,5.88c-3.72,12.62-9.79,18.44-9.79,18.44c-12.66-28.21-7.36-47.5,1.06-59.73
			c-2.21,1.06-4.56,2.28-7.02,3.68l-1.24-7.49l-1.94,9.37c-1.85,1.13-3.73,2.36-5.64,3.68c-1.13,0.79-2.25,1.52-3.35,2.18l-1.61-6.2
			l-0.33,7.32c-1.68,0.93-3.3,1.72-4.86,2.39c-0.73-3.2-1.57-6.82-1.58-6.55c-0.01,0.23-0.34,3.83-0.67,7.45
			c-10.2,3.8-17.13,2.46-17.13,2.46c12.47-24.03,28.43-29.77,40.94-29.7c-1.71-0.72-3.45-1.55-5.21-2.52l2.3-7.14l-4.33,5.96
			c-1.14-0.69-2.27-1.45-3.41-2.27c-1.9-1.37-3.82-2.65-5.73-3.83l1.03-9.21l-4.33,7.24c-13.41-7.63-25.33-10.56-25.33-10.56
			s46.9-16.97,64.47,16.87c0.5-47.29,41.43-51.82,41.43-51.82s-4.06,7.09-9.83,15.41l-10.95,0.97l8.52,2.45
			c-2.8,3.86-5.89,7.81-9.04,11.31l-0.72,0.81c-4.03-1.16-8.16-2.32-7.95-2.09c0.21,0.24,3.31,2.36,6.14,4.28
			c-0.75,0.95-1.49,1.93-2.2,2.93l-7.58-0.28l5.72,2.98c-1.75,2.63-3.37,5.34-4.84,7.96c8.75-11.57,25.84-23.75,56.99-13.76
			c0,0-4.36,6.47-14.98,11.56c-2.9-2.53-5.78-5.04-5.95-5.21c-0.2-0.2,1.79,3.25,3.56,6.28c-1.69,0.71-3.52,1.38-5.49,1.98
			l-5.59-5.38l3.28,6.04c-1.33,0.35-2.72,0.67-4.17,0.95c-2.43,0.47-4.78,1.01-7.02,1.59l-8.33-5.69l4.51,6.74
			c-5.62,1.65-10.5,3.52-14.41,5.22c35.99-9.45,50.18,23.01,50.18,23.01s-6.93-1.58-15.34-4.33l-3.87-9.36l0.39,8.18
			c-3.94-1.38-8.03-2.99-11.78-4.78l-0.86-0.4c-0.18-3.87-0.39-7.83-0.53-7.58c-0.14,0.25-1,3.57-1.77,6.6
			c-0.98-0.39-1.99-0.77-3.01-1.12l-1.9-6.75l-0.83,5.87c-5.33-1.62-10.76-2.69-15.08-3.38c0.83,3.4,4.85,20.9,6.08,45.15
			c5.97-1.57,27.38-7.65,35.22-15.74c9.15-9.44,33.13-2.73,33.13-2.73c16.26-13.68,37.4,7.93,37.4,7.93s9.38-14.59,25.4-16.66
			C559.85,301.19,537.66,266.3,506.17,243.39z M398.33,267.2l-0.29,0.68l-1.05,0.04l-0.55,1.33l-1.08-0.21l-0.45-1.99
			c-0.46-0.19-4.35-1.55-8.9-3.29l1.29,9.24l-2.79-0.64c0,0-3.9-7.84-5.6-11.45c-5.06-2.15-9.21-4.28-8.59-5.29
			c0.16-0.27,0.28-0.51,0.93-0.53c2.35-1.63,6.84-0.38,11.28,1.65c2.8-1.28,10.9-4.72,10.9-4.72l2.24,1.17l-7.4,6.54
			c3.87,2.24,6.79,4.32,6.79,4.32l3.39-2.23l1.54,0.71l-2.35,4.27L398.33,267.2z"/>
	</g>
</g>
</svg>
